<?xml version="1.0" encoding="UTF-8"?>
<svg width="450px" height="450px" viewBox="0 0 450 450" version="1.1" xmlns="http://www.w3.org/2000/svg" xmlns:xlink="http://www.w3.org/1999/xlink">
    <!-- Generator: Sketch 48.1 (47250) - http://www.bohemiancoding.com/sketch -->
    <title>Group</title>
    <desc>Created with Sketch.</desc>
    <defs></defs>
    <g id="Page-1" stroke="none" stroke-width="1" fill="none" fill-rule="evenodd">
        <g id="Group">
            <circle id="Oval-Copy" fill="#4C866E" cx="225" cy="225" r="225"></circle>
            <path d="M270.398655,287.477605 C271.75392,286.178677 273.228853,285.003626 274.805259,283.970647 L274.57974,283.312019 L281.235814,278.728055 L281.254515,280.763489 C284.456682,279.621722 287.905735,279 291.5,279 C296.755974,279 301.701432,280.329482 306.018429,282.670503 L372.817238,196.725374 L372.854622,196.755657 C374.749004,193.882584 377.914645,192 381.5,192 C387.29899,192 392,196.924868 392,203 C392,206.109389 390.768513,208.917452 388.788627,210.918098 L388.784769,210.922429 L370.348781,234.488929 L328.197148,288.508578 L321.257702,297.50178 L321.715347,297.287216 L321.199829,297.923187 L321.199829,297.901613 L320.199663,299.151757 C321.364895,302.38285 322,305.867257 322,309.5 C322,326.344685 308.344685,340 291.5,340 C274.655315,340 261,326.344685 261,309.5 C261,304.193057 262.355392,299.202682 264.738893,294.856159 L215.100168,202.045497 C212.670545,202.668645 210.123968,203 207.5,203 C203.618822,203 199.906963,202.275058 196.492445,200.953196 L157.079145,256.458615 C158.952233,260.412728 160,264.834004 160,269.5 C160,286.344685 146.344685,300 129.5,300 C112.655315,300 99,286.344685 99,269.5 C99,268.950283 99.014543,268.403962 99.0432653,267.861402 L64.0282277,244.528568 C59.9565505,243.199775 57,239.212421 57,234.5 C57,228.70101 61.4771525,224 67,224 C69.7249243,224 72.19529,225.14439 73.9989495,227.000414 L106.958249,248.954153 C112.536186,242.837852 120.569904,239 129.5,239 C133.961102,239 138.198506,239.957768 142.017801,241.678895 L180.777409,187.213859 C178.369999,182.850945 177,177.835463 177,172.5 C177,155.655315 190.655315,142 207.5,142 C224.344685,142 238,155.655315 238,172.5 C238,179.08443 235.913529,185.181539 232.36568,190.166234 L281.254515,278.652047 L281.254515,278.715176 L281.235814,278.728055 L281.213417,278.689745 L269.440206,284.817428 L270.398655,287.477605 Z" id="Shadow-Copy" fill="#2A363F"></path>
            <path d="M321.199829,289.901613 L300.524636,315.74429 L300.347405,315.970842 L300.346418,315.967051 L298.487236,318.290909 C296.720637,321.118757 293.580012,323 290,323 C285.802142,323 282.20842,320.413388 280.725692,316.747024 L208.193562,181.132059 C207.585469,180.573101 207.071925,180.293622 206.652932,180.293622 C206.175688,180.293622 205.527827,180.656213 204.709351,181.381396 L137.841767,275.550452 L137.740638,275.43026 C135.798967,277.618822 132.993589,279 130,279 C127.063121,279 124.421941,277.670656 122.592459,275.553767 L64.0282277,236.528568 C59.9565505,235.199775 57,231.212421 57,226.5 C57,220.70101 61.4771525,216 67,216 C69.7249243,216 72.19529,217.14439 73.9989495,219.000414 L125.133627,253.060525 C126.032728,253.229346 126.719385,253.258047 127.193598,253.146628 C127.612642,253.048171 128.127754,252.778752 128.738934,252.338371 L199.868687,152.386778 C199.944733,152.275459 200.022787,152.165785 200.102806,152.057795 L200.652259,151.285703 L200.668805,151.358884 C202.49503,149.29284 205.103725,148 208,148 C212.467366,148 216.250534,151.075871 217.533385,155.32069 L281.254515,270.652047 L281.254515,270.715176 L281.29969,270.684065 L291.463555,288.13636 C292.196471,289.196976 292.841965,289.727284 293.400037,289.727284 C293.849509,289.727284 294.435971,289.365518 295.159425,288.641987 L372.817238,188.725374 L372.854622,188.755657 C374.749004,185.882584 377.914645,184 381.5,184 C387.29899,184 392,188.924868 392,195 C392,198.109389 390.768513,200.917452 388.788627,202.918098 L388.784769,202.922429 L370.348781,226.488929 L328.197148,280.508578 L321.257702,289.50178 L321.715347,289.287216 L321.199829,289.923187 L321.199829,289.901613 Z" id="Combined-Shape-Copy" fill="#FFFFFF"></path>
            <path d="M207.5,195 C190.655315,195 177,181.344685 177,164.5 C177,147.655315 190.655315,134 207.5,134 C224.344685,134 238,147.655315 238,164.5 C238,181.344685 224.344685,195 207.5,195 Z M129.5,292 C112.655315,292 99,278.344685 99,261.5 C99,244.655315 112.655315,231 129.5,231 C146.344685,231 160,244.655315 160,261.5 C160,278.344685 146.344685,292 129.5,292 Z M291.5,332 C274.655315,332 261,318.344685 261,301.5 C261,284.655315 274.655315,271 291.5,271 C308.344685,271 322,284.655315 322,301.5 C322,318.344685 308.344685,332 291.5,332 Z" id="Vertices-Copy" fill="#67C896"></path>
        </g>
    </g>
</svg>